<?xml version="1.0" encoding="UTF-8"?>
<svg xmlns="http://www.w3.org/2000/svg" xmlns:xlink="http://www.w3.org/1999/xlink" width="4713" height="3361" viewBox="0 0 4713 3361">
<path fill-rule="evenodd" fill="rgb(100%, 100%, 100%)" fill-opacity="1" d="M 0.339844 0.269531 L 4712.609375 0.269531 L 4712.609375 3360.261719 L 0.339844 3360.261719 L 0.339844 0.269531 "/>
<path fill-rule="evenodd" fill="rgb(97.65625%, 70.896912%, 10.984802%)" fill-opacity="1" d="M 2356.480469 293.398438 C 3122.421875 293.398438 3743.339844 914.320312 3743.339844 1680.269531 C 3743.339844 2446.210938 3122.421875 3067.128906 2356.480469 3067.128906 C 1590.53125 3067.128906 969.613281 2446.210938 969.613281 1680.269531 C 969.613281 914.320312 1590.53125 293.398438 2356.480469 293.398438 "/>
<path fill-rule="evenodd" fill="rgb(98.4375%, 70.506287%, 47.459412%)" fill-opacity="1" d="M 3549.160156 2388.25 C 3307.351562 2794.71875 2863.761719 3067.128906 2356.480469 3067.128906 C 2102.050781 3067.128906 1863.671875 2998.550781 1658.691406 2878.976562 C 1760.710938 2770.902344 1876.621094 2654.128906 1954.75 2593.757812 C 2123.628906 2463.257812 2379.5 2414.640625 2379.5 2414.640625 L 2302.738281 2194.589844 C 2302.738281 2194.589844 1967.550781 2263.679688 1880.550781 2110.148438 C 1793.550781 1956.621094 1734.691406 1664.921875 1701.429688 1524.191406 C 1668.171875 1383.449219 1663.050781 1339.949219 1663.050781 1339.949219 C 1663.050781 1339.949219 1320.171875 1217.121094 1384.140625 984.28125 C 1448.109375 751.421875 1714.230469 766.78125 1714.230469 766.78125 C 1714.230469 766.78125 1849.839844 521.140625 2057.101562 521.140625 C 2264.359375 521.140625 2307.859375 567.191406 2307.859375 567.191406 C 2307.859375 567.191406 2543.28125 508.339844 2689.128906 605.570312 C 2834.980469 702.808594 2852.890625 902.390625 2852.890625 902.390625 C 2852.890625 902.390625 3055.03125 953.570312 3088.300781 1119.890625 C 3121.558594 1286.210938 3021.769531 1897.761719 3021.769531 1897.761719 C 3021.769531 1897.761719 3354.128906 2179.128906 3549.160156 2388.25 "/>
<path fill-rule="evenodd" fill="rgb(79.6875%, 56.054688%, 36.473083%)" fill-opacity="1" d="M 2169.28125 2477.410156 C 2248.46875 2446.464844 2319.378906 2428.160156 2355.089844 2419.917969 C 2243.910156 2499.921875 2187.609375 2501.644531 2187.609375 2501.644531 Z M 2375.949219 2404.457031 L 2302.738281 2194.589844 C 2302.738281 2194.589844 2417.890625 2158.769531 2504.890625 2102.46875 C 2591.890625 2046.179688 2625.160156 1966.859375 2625.160156 1966.859375 C 2625.160156 1966.859375 2604.691406 2207.390625 2438.371094 2353.230469 C 2416.089844 2372.777344 2395.28125 2389.726562 2375.949219 2404.457031 "/>
<path fill-rule="evenodd" fill="rgb(91.014099%, 49.804688%, 52.146912%)" fill-opacity="1" d="M 3549.160156 2388.25 C 3307.351562 2794.71875 2863.761719 3067.128906 2356.480469 3067.128906 C 2102.050781 3067.128906 1863.671875 2998.550781 1658.691406 2878.976562 C 1760.710938 2770.902344 1876.621094 2654.128906 1954.75 2593.757812 C 2123.628906 2463.257812 2379.5 2414.640625 2379.5 2414.640625 C 2379.5 2414.640625 2522.808594 2453.023438 2858.019531 2335.320312 C 3052.71875 2266.949219 3108.410156 2106.21875 3120.910156 1983.488281 C 3234.46875 2083.058594 3421.320312 2251.171875 3549.160156 2388.25 "/>
<path fill-rule="evenodd" fill="rgb(17.259216%, 23.535156%, 38.818359%)" fill-opacity="1" d="M 1663.050781 1339.949219 C 1663.050781 1339.949219 1320.171875 1217.121094 1384.140625 984.28125 C 1448.109375 751.421875 1714.230469 766.78125 1714.230469 766.78125 C 1714.230469 766.78125 1849.839844 521.140625 2057.101562 521.140625 C 2264.359375 521.140625 2307.859375 567.191406 2307.859375 567.191406 C 2307.859375 567.191406 2543.28125 508.339844 2689.128906 605.570312 C 2834.980469 702.808594 2852.890625 902.390625 2852.890625 902.390625 C 2852.890625 902.390625 3055.03125 953.570312 3088.300781 1119.890625 C 3121.558594 1286.210938 3021.769531 1897.761719 3021.769531 1897.761719 C 2873.351562 1908 2681.460938 1544.648438 2653.308594 1444.859375 C 2625.160156 1345.058594 2484.429688 1311.800781 2448.609375 1362.96875 C 2412.78125 1414.148438 2499.78125 1560 2499.78125 1560 L 2428.140625 1567.671875 L 2338.578125 1406.46875 C 2338.578125 1406.46875 2277.171875 1416.710938 2197.851562 1378.320312 C 2118.53125 1339.941406 1980.351562 1204.328125 1980.351562 1204.328125 C 1980.351562 1204.328125 1947.089844 1235.03125 1824.261719 1286.210938 C 1701.441406 1337.390625 1663.050781 1339.949219 1663.050781 1339.949219 "/>
</svg>
