<svg xmlns="http://www.w3.org/2000/svg" shape-rendering="geometricPrecision" text-rendering="geometricPrecision" image-rendering="optimizeQuality" fill-rule="evenodd" clip-rule="evenodd" viewBox="0 0 512 371.225"><path fill="#292824" fill-rule="nonzero" d="M380.989 101.802c.882 18.381-.2 56.386-.374 84.304 38.365-1.971 78.006-4.844 117.98-8.214.457-.053.923-.081 1.396-.081 6.631 0 12.009 5.377 12.009 12.009v169.396c0 6.632-5.378 12.009-12.009 12.009H172.216v-.046h-.14c-26.911-.365-50.987-3.197-72.012-8.676-21.67-5.647-40.174-14.087-55.283-25.511C-1.045 302.34-.333 263.366.515 217.02c.087-4.792.177-9.685.177-18.397l-.397-74.422c0-4.421-.612-17.124-.073-26.112.966-27.886 22.603-52.665 57.106-70.333C90.817 10.608 136.827 0 187.419 0c50.965 0 98.918 10.759 134.037 28.116 36.43 18.006 59.567 43.358 59.567 71.924 0 .588-.014 1.176-.034 1.762z"/><path fill="#FAC04C" d="M470.836 192.205c-240.507 19.053-456.54 18.898-458.135-98.072v104.49c0 51.332-7.441 93.451 39.304 128.798a114.941 114.941 0 008.768 6.002v-32.08h24.018v43.792c10.757 4.069 22.595 7.229 35.469 9.519v-79.418h24.018v82.583c8.912.803 18.229 1.265 27.938 1.397h7.531v-57.022h24.018v57.022h35.468v-89.242h24.018v89.241h35.47v-57.919h24.018v57.918h35.468v-90.075h24.018v90.075l35.469-.001v-53.335h24.018v53.335h29.124V192.205z"/><path fill="#fff" fill-rule="nonzero" d="M311.152 45.006c-32.105-15.867-76.351-25.704-123.733-25.704-46.892 0-89.139 9.628-119.534 25.193C39.308 59.128 21.632 78.8 21.632 100.04c0 21.239 17.676 40.912 46.253 55.545 30.395 15.565 72.642 25.193 119.534 25.193 47.382 0 91.628-9.837 123.733-25.705 29.615-14.636 48.423-34.122 48.423-55.033 0-20.912-18.808-40.397-48.423-55.034z"/><path fill="#292824" d="M190.024 53.234c50.524 0 95.795 21.597 95.795 49.406 0 27.81-45.271 48.458-95.795 48.458s-91.48-20.648-91.48-48.458c0-27.809 40.956-49.406 91.48-49.406z"/></svg>